<svg width="24" height="24" viewBox="0 0 24 24" fill="none" xmlns="http://www.w3.org/2000/svg">
<path fill-rule="evenodd" clip-rule="evenodd" d="M4.26339 18.2529C3.9122 18.6041 3.9122 19.1734 4.26339 19.5246C4.61458 19.8758 5.18398 19.8758 5.53517 19.5246L11.894 13.1658L18.4648 19.7366C18.816 20.0878 19.3854 20.0878 19.7366 19.7366C20.0878 19.3854 20.0878 18.816 19.7366 18.4648L13.1658 11.894L19.5247 5.53516C19.8759 5.18397 19.8759 4.61458 19.5247 4.26339C19.1735 3.9122 18.6041 3.9122 18.2529 4.26339L11.894 10.6223L5.74711 4.47536C5.39591 4.12417 4.82652 4.12417 4.47533 4.47536C4.12414 4.82655 4.12414 5.39594 4.47533 5.74713L10.6222 11.894L4.26339 18.2529Z" fill="#A8A2B2"/>
</svg>
